<svg xmlns="http://www.w3.org/2000/svg" viewBox="0 0 64 64" width="64" height="64">
  <!-- ターミナル風の背景 -->
  <rect x="4" y="8" width="56" height="48" rx="6" fill="#1a1a2e"/>
  <rect x="4" y="8" width="56" height="12" rx="6" fill="#16213e"/>
  <circle cx="12" cy="14" r="2" fill="#e94560"/>
  <circle cx="19" cy="14" r="2" fill="#f5a623"/>
  <circle cx="26" cy="14" r="2" fill="#4ecca3"/>
  <!-- プロンプト記号 -->
  <path d="M12 30 L20 36 L12 42" stroke="#4ecca3" stroke-width="3" fill="none" stroke-linecap="round" stroke-linejoin="round"/>
  <line x1="24" y1="42" x2="34" y2="42" stroke="#4ecca3" stroke-width="3" stroke-linecap="round"/>
  <!-- AIを表すスパークル -->
  <path d="M46 26 L48.2 32.8 L55 35 L48.2 37.2 L46 44 L43.8 37.2 L37 35 L43.8 32.8 Z" fill="#f5a623"/>
  <path d="M52 44 L53.2 47 L56 48 L53.2 49 L52 52 L50.8 49 L48 48 L50.8 47 Z" fill="#e94560"/>
</svg>
