<svg xmlns="http://www.w3.org/2000/svg" viewBox="0 0 64 64">
  <title>Bucket List 100</title>
  <style>
    .background { fill: #1f2933; }
    .letter { fill: #f6f5f1; }
    @media (prefers-color-scheme: dark) {
      .background { fill: #f6f5f1; }
      .letter { fill: #1f2933; }
    }
  </style>
  <rect width="64" height="64" rx="15" class="background" />
  <path
    d="m20.5 34 17 17 22-28"
    fill="none"
    stroke="#2d9c60"
    stroke-linecap="round"
    stroke-linejoin="round"
    stroke-width="10"
  />
  <path
    class="letter"
    fill-rule="evenodd"
    d="M15 10h20c10.1 0 16.2 5.3 16.2 13.7 0 5.1-2.6 8.8-7.4 11.1C49.6 36.8 53 41.2 53 47c0 9.6-7.1 15-18 15H15V10Zm11 9v12h8.2c4.5 0 6.8-2 6.8-6s-2.3-6-6.8-6H26Zm0 21v13h8.7c5.3 0 8-2.2 8-6.5s-2.7-6.5-8-6.5H26Z"
  />
</svg>
